<svg xmlns="http://www.w3.org/2000/svg" viewBox="0 0 264 264"><defs><style>.cls-1{fill:#181a1e;}.cls-2{fill:#f9f9f9;stroke:#f9f9f9;}</style></defs><g id="Calque_2" data-name="Calque 2"><g id="Calque_1-2" data-name="Calque 1"><rect class="cls-1" width="264" height="264" rx="74.75"/><path class="cls-2" d="M61.82,111.68l67.25-49.31a5.19,5.19,0,0,1,6.16,0l67.26,49.31a5.21,5.21,0,0,1-1.54,9.18L133.7,141.72a5.25,5.25,0,0,1-3.09,0L63.36,120.86A5.21,5.21,0,0,1,61.82,111.68Z"/><path class="cls-2" d="M131.6,201.05,83,161a5.21,5.21,0,0,1,5-8.93L133.16,168a5.17,5.17,0,0,0,3.45,0l46.13-16a5.21,5.21,0,0,1,5,9l-49.54,40.16A5.2,5.2,0,0,1,131.6,201.05Z"/></g></g></svg>