<svg width="32" height="29" viewBox="0 0 32 29" fill="none" xmlns="http://www.w3.org/2000/svg">
<path d="M2.39706 10.3927L15.3127 0.922207C15.6647 0.664121 16.1434 0.664121 16.4954 0.922208L29.4111 10.3927C30.0733 10.8783 29.9003 11.9109 29.116 12.1542L16.2003 16.161C16.0074 16.2208 15.8008 16.2208 15.6078 16.161L2.69208 12.1542C1.90777 11.9109 1.73482 10.8783 2.39706 10.3927Z" fill="#A3E7EE" stroke="#A3E7EE"/>
<path d="M15.7974 27.5551L6.4701 19.853C5.60787 19.141 6.38631 17.7661 7.44045 18.1392L16.0978 21.203C16.3118 21.2787 16.5452 21.2794 16.7596 21.2049L25.6194 18.1264C26.6774 17.7588 27.4474 19.1424 26.5774 19.8478L17.0639 27.5608C16.6942 27.8605 16.1644 27.8581 15.7974 27.5551Z" fill="#A3E7EE" stroke="#A3E7EE"/>
</svg>
