<svg width="31" height="29" viewBox="0 0 31 29" fill="none" xmlns="http://www.w3.org/2000/svg">
<path d="M1.67654 11.079L14.5922 1.60852C14.9442 1.35043 15.4229 1.35043 15.7749 1.60852L28.6905 11.079C29.3528 11.5646 29.1798 12.5972 28.3955 12.8405L15.4798 16.8473C15.2868 16.9071 15.0802 16.9071 14.8872 16.8473L1.97156 12.8405C1.18725 12.5972 1.0143 11.5646 1.67654 11.079Z" fill="#F09113" stroke="#FD9524"/>
<path d="M15.0769 28.2414L5.74952 20.5393C4.88728 19.8273 5.66573 18.4525 6.71987 18.8255L15.3772 21.8893C15.5912 21.965 15.8246 21.9657 16.039 21.8912L24.8988 18.8128C25.9568 18.4451 26.7269 19.8288 25.8568 20.5341L16.3434 28.2471C15.9736 28.5469 15.4439 28.5445 15.0769 28.2414Z" fill="#F09113" stroke="#FD9524"/>
</svg>
