<svg version="1.2" xmlns="http://www.w3.org/2000/svg" viewBox="0 0 500 500" width="500" height="500">
	<title>melefo-svg</title>
	<style>
		.s0 { fill: #000000 } 
	</style>
	<g id="Layer">
		<path id="Layer" class="s0" d="m299.6 159.5c-13.2 13.2-31 20.5-49.5 20.5c-18.6 0-36.4-7.3-49.5-20.5c-13.2-13.1-20.5-30.9-20.5-49.5c0-18.6 7.3-36.4 20.5-49.5c13.1-13.1 30.9-20.5 49.5-20.5c18.5 0 36.3 7.4 49.5 20.5c13.1 13.1 20.5 30.9 20.5 49.5c0 18.6-7.4 36.4-20.5 49.5z" />
		<path id="Layer" class="s0" d="m117.3 361.5c9.3 6.8 15.6 17.1 17.3 28.6c1.8 11.5-1.1 23.2-7.9 32.5c-6.9 9.4-17.2 15.6-28.6 17.4c-11.5 1.8-23.2-1.1-32.6-7.9v-0.1l-36.2-26.5c-14.8-10.9-23.8-28-24.3-46.4c-0.5-18.4 7.6-35.9 21.8-47.6l79.6-64.9c24.9-20.4 56.2-31.6 88.5-31.6h23.1l19.7 54.4l-24.7 119.8l37 70.8l37-70.8l-24.7-119.8l19.7-54.4h23.1c32.3 0 63.6 11.2 88.6 31.6l79.5 64.9c14.2 11.7 22.3 29.2 21.8 47.6c-0.5 18.4-9.5 35.5-24.3 46.4l-36.2 26.6c-9.4 6.8-21.1 9.7-32.6 7.9c-11.4-1.8-21.7-8-28.6-17.4c-6.8-9.3-9.7-21-7.9-32.5c1.7-11.5 8-21.8 17.3-28.6l7-5.1l-45-36.8c13.3 21 20.4 45.3 20.3 70.2c0 24.9-7.2 49.3-20.6 70.2h-188.8c-13.4-20.9-20.5-45.3-20.5-70.2c-0.1-24.9 7-49.2 20.3-70.2l-45.1 36.8l7 5.1z" />
	</g>
</svg>